<svg width="16" height="16" viewBox="0 0 16 16" fill="none" xmlns="http://www.w3.org/2000/svg">
<path d="M14.2083 9.20833V14.2083C14.2083 14.6504 14.0327 15.0743 13.7202 15.3868C13.4076 15.6994 12.9837 15.875 12.5417 15.875H2.54167C2.09964 15.875 1.67572 15.6994 1.36316 15.3868C1.05059 15.0743 0.875 14.6504 0.875 14.2083V4.20833C0.875 3.76631 1.05059 3.34238 1.36316 3.02982C1.67572 2.71726 2.09964 2.54167 2.54167 2.54167H7.54167V4.20833H2.54167V14.2083H12.5417V9.20833H14.2083ZM9.20833 0.875V2.54167H13.03L6.53583 9.03583L7.71417 10.2142L14.2083 3.72V7.54167H15.875V0.875H9.20833Z" fill="white"/>
</svg>
